<svg xmlns="http://www.w3.org/2000/svg" xmlns:xlink="http://www.w3.org/1999/xlink" width="500" zoomAndPan="magnify" viewBox="0 0 375 374.999991" height="500" preserveAspectRatio="xMidYMid meet" version="1.0"><path fill="#ffffff" d="M 258.425781 126.917969 C 245.679688 115.273438 228.835938 116.765625 214.902344 125.5 C 206.777344 130.578125 199.695312 137.59375 193.957031 145.285156 C 190.679688 149.6875 188.292969 154.09375 186.429688 158.796875 C 180.691406 146.480469 165.789062 136.550781 154.308594 132.367188 C 137.617188 126.320312 119.355469 130.128906 108.773438 144.910156 C 97.816406 160.214844 97.222656 180.820312 105.195312 197.46875 C 113.171875 214.195312 128.300781 226.886719 142.535156 238.085938 C 150.882812 244.652344 159.378906 251.222656 167.875 257.644531 C 172.570312 261.152344 177.039062 264.960938 181.585938 268.542969 C 182.78125 272.277344 186.65625 275.339844 190.902344 275.339844 C 193.0625 276.308594 195.746094 275.113281 196.863281 273.097656 C 211.996094 260.332031 227.421875 247.789062 241.207031 233.457031 C 255.292969 218.746094 269.230469 201.425781 274.222656 181.269531 C 278.769531 162.605469 272.882812 140.058594 258.425781 126.917969 Z M 256.859375 180.222656 C 251.566406 196.5 239.347656 210.238281 227.421875 222.105469 C 215.273438 234.277344 201.859375 245.175781 188.742188 256.300781 C 182.109375 248.6875 173.316406 242.414062 165.488281 236.441406 C 152.519531 226.511719 139.03125 216.730469 128.152344 204.488281 C 118.984375 194.183594 112.277344 181.046875 115.183594 166.933594 C 118.089844 152.527344 127.703125 142.222656 143.054688 143.269531 C 151.03125 143.792969 158.929688 147 165.636719 151.109375 C 172.644531 155.4375 177.414062 161.632812 183.449219 166.933594 C 183.152344 167.90625 182.855469 168.949219 182.554688 169.996094 C 182.035156 171.789062 184.492188 172.683594 185.460938 171.191406 C 186.207031 170.070312 187.101562 168.949219 187.921875 167.832031 C 188.144531 167.683594 188.367188 167.457031 188.445312 167.160156 C 191.945312 162.828125 196.195312 158.648438 199.921875 154.839844 C 204.914062 149.765625 209.832031 144.6875 215.644531 140.507812 C 224.738281 134.085938 237.40625 127.664062 247.246094 136.175781 C 259.542969 147.074219 261.703125 165.589844 256.859375 180.222656 Z M 256.859375 180.222656 " fill-opacity="1" fill-rule="nonzero"/><path fill="#ffffff" d="M 164.667969 33 C 165.414062 33.597656 167.054688 33.597656 167.800781 33 C 171.675781 30.011719 171.152344 26.128906 171.003906 21.5 C 170.855469 15.976562 170.632812 10.304688 169.960938 4.851562 C 169.363281 0 163.03125 0 162.433594 4.851562 C 161.761719 10.304688 161.539062 15.976562 161.390625 21.5 C 161.316406 26.128906 160.792969 30.011719 164.667969 33 Z M 164.667969 33 " fill-opacity="1" fill-rule="nonzero"/><path fill="#ffffff" d="M 110.117188 42.929688 C 107.878906 39.644531 105.570312 36.507812 103.332031 33.296875 C 101.246094 30.3125 99.308594 26.652344 96.550781 24.1875 C 94.539062 22.398438 90.289062 23.441406 90.664062 26.652344 C 91.484375 34.789062 98.785156 42.03125 104.152344 47.558594 C 107.058594 50.617188 112.574219 46.585938 110.117188 42.929688 Z M 110.117188 42.929688 " fill-opacity="1" fill-rule="nonzero"/><path fill="#ffffff" d="M 34.097656 83.46875 C 31.191406 83.09375 29.773438 87.273438 31.785156 89.066406 C 36.257812 93.246094 41.476562 96.757812 47.585938 97.875 C 51.460938 98.625 54.441406 94.21875 51.535156 91.15625 C 46.839844 86.304688 40.65625 84.214844 34.097656 83.46875 Z M 34.097656 83.46875 " fill-opacity="1" fill-rule="nonzero"/><path fill="#ffffff" d="M 27.015625 149.6875 C 20.90625 146.777344 13.378906 146.03125 6.820312 147.824219 C 1.304688 149.316406 3.167969 156.332031 8.085938 157.003906 C 13.527344 157.753906 18.96875 158.574219 24.484375 159.246094 C 29.402344 159.917969 31.414062 151.78125 27.015625 149.6875 Z M 27.015625 149.6875 " fill-opacity="1" fill-rule="nonzero"/><path fill="#ffffff" d="M 35.289062 227.707031 C 30.894531 227.632812 26.347656 229.5 22.621094 231.664062 C 18.519531 234.128906 15.539062 236.964844 12.707031 240.773438 C 9.949219 244.578125 14.496094 249.132812 18.445312 248.238281 C 25.601562 246.519531 33.875 241.519531 38.644531 235.769531 C 41.175781 232.707031 39.6875 227.855469 35.289062 227.707031 Z M 35.289062 227.707031 " fill-opacity="1" fill-rule="nonzero"/><path fill="#ffffff" d="M 68.601562 293.480469 C 65.546875 294.152344 62.9375 295.496094 60.703125 297.660156 C 58.542969 299.75 56.753906 302.8125 56.082031 305.722656 C 55.039062 310.425781 60.628906 313.9375 64.28125 310.503906 C 67.335938 307.515625 70.09375 304.15625 73.222656 301.246094 C 76.726562 297.960938 72.925781 292.585938 68.601562 293.480469 Z M 68.601562 293.480469 " fill-opacity="1" fill-rule="nonzero"/><path fill="#ffffff" d="M 117.640625 337.679688 C 111.457031 341.632812 110.191406 351.414062 110.414062 358.132812 C 110.5625 361.644531 115.40625 362.316406 116.449219 358.957031 C 117.492188 355.746094 118.613281 352.535156 119.65625 349.25 C 120.625 346.261719 121.890625 343.128906 121.519531 339.917969 C 121.292969 338.125 119.429688 336.558594 117.640625 337.679688 Z M 117.640625 337.679688 " fill-opacity="1" fill-rule="nonzero"/><path fill="#ffffff" d="M 180.246094 353.578125 C 179.351562 351.042969 175.773438 350.296875 174.359375 352.832031 C 170.855469 358.878906 172.644531 366.945312 175.847656 372.691406 C 178.007812 376.5 182.929688 373.664062 182.40625 369.929688 C 181.660156 364.628906 181.960938 358.65625 180.246094 353.578125 Z M 180.246094 353.578125 " fill-opacity="1" fill-rule="nonzero"/><path fill="#ffffff" d="M 297.03125 314.980469 C 293.527344 313.414062 289.800781 317.445312 292.78125 320.507812 C 298.074219 325.957031 305.226562 329.988281 312.011719 333.273438 C 314.617188 334.542969 317.300781 332.003906 315.960938 329.316406 C 312.382812 322.148438 304.183594 318.117188 297.03125 314.980469 Z M 297.03125 314.980469 " fill-opacity="1" fill-rule="nonzero"/><path fill="#ffffff" d="M 339.734375 271.753906 C 334.515625 270.558594 328.554688 269.140625 323.261719 270.410156 C 319.761719 271.230469 319.386719 276.160156 322.292969 277.875 C 326.542969 280.488281 331.984375 281.238281 336.679688 282.730469 C 341.597656 284.222656 346.441406 285.34375 351.585938 285.492188 C 354.789062 285.566406 356.875 281.085938 354.339844 278.921875 C 350.09375 275.265625 345.25 272.949219 339.734375 271.753906 Z M 339.734375 271.753906 " fill-opacity="1" fill-rule="nonzero"/><path fill="#ffffff" d="M 364.699219 221.511719 C 358.664062 217.925781 350.316406 215.238281 343.460938 218.152344 C 341.074219 219.195312 339.511719 223.226562 342.640625 224.570312 C 348.453125 227.183594 355.234375 227.855469 361.496094 229.273438 C 366.042969 230.320312 368.949219 224.046875 364.699219 221.511719 Z M 364.699219 221.511719 " fill-opacity="1" fill-rule="nonzero"/><path fill="#ffffff" d="M 369.84375 152.75 C 361.867188 151.929688 352.777344 154.617188 347.039062 160.515625 C 343.757812 163.949219 347.859375 168.355469 351.808594 166.710938 C 358.292969 163.949219 365.222656 162.15625 371.484375 158.871094 C 374.539062 157.082031 372.75 153.046875 369.84375 152.75 Z M 369.84375 152.75 " fill-opacity="1" fill-rule="nonzero"/><path fill="#ffffff" d="M 329.449219 107.359375 C 335.261719 103.175781 341.597656 99.519531 346.964844 94.742188 C 349.199219 92.726562 347.484375 88.46875 344.429688 88.617188 C 335.636719 89.140625 329.523438 96.160156 325.648438 103.550781 C 324.457031 105.863281 326.988281 109.148438 329.449219 107.359375 Z M 329.449219 107.359375 " fill-opacity="1" fill-rule="nonzero"/><path fill="#ffffff" d="M 294.273438 44.421875 C 297.550781 41.359375 300.980469 38.597656 302.992188 34.492188 C 305.453125 29.488281 299.714844 25.457031 295.613281 28.742188 C 288.460938 34.417969 279.664062 42.332031 279.144531 52.109375 C 278.917969 55.84375 283.613281 56.292969 285.476562 53.828125 C 288.160156 50.394531 291.066406 47.40625 294.273438 44.421875 Z M 294.273438 44.421875 " fill-opacity="1" fill-rule="nonzero"/><path fill="#ffffff" d="M 227.867188 29.488281 C 230.105469 21.054688 233.757812 13.8125 233.234375 4.851562 C 233.011719 0.820312 227.941406 0.449219 226.527344 3.957031 C 223.097656 12.167969 220.339844 19.484375 220.714844 28.519531 C 220.9375 32.476562 226.824219 33.519531 227.867188 29.488281 Z M 227.867188 29.488281 " fill-opacity="1" fill-rule="nonzero"/><path fill="#ffffff" d="M 246.277344 349.027344 C 246.203125 346.261719 244.265625 343.949219 241.507812 343.574219 C 239.046875 343.277344 235.84375 344.769531 235.46875 347.53125 C 235.023438 350.59375 234.574219 353.730469 234.875 356.863281 C 235.246094 360.300781 236.4375 363.210938 237.855469 366.273438 C 238.972656 368.734375 242.402344 369.480469 244.636719 368.511719 C 247.320312 367.316406 248.289062 364.851562 247.765625 362.089844 C 247.097656 357.835938 246.425781 353.355469 246.277344 349.027344 Z M 246.277344 349.027344 " fill-opacity="1" fill-rule="nonzero"/></svg>