<svg xmlns="http://www.w3.org/2000/svg" xmlns:xlink="http://www.w3.org/1999/xlink" width="1000" zoomAndPan="magnify" viewBox="0 0 750 374.999991" height="500" preserveAspectRatio="xMidYMid meet" version="1.0"><defs><clipPath id="f31475bf2d"><path d="M 600.226562 78.335938 L 705.976562 78.335938 L 705.976562 211.085938 L 600.226562 211.085938 Z M 600.226562 78.335938 " clip-rule="nonzero"/></clipPath><clipPath id="f187ba470d"><path d="M 555 226 L 569 226 L 569 242 L 555 242 Z M 555 226 " clip-rule="nonzero"/></clipPath><clipPath id="d8997b6119"><path d="M 192.21875 0 L 569.691406 229.46875 L 415.027344 483.894531 L 37.550781 254.429688 Z M 192.21875 0 " clip-rule="nonzero"/></clipPath><clipPath id="5ae9312b88"><path d="M 192.21875 0 L 569.691406 229.46875 L 415.027344 483.894531 L 37.550781 254.429688 Z M 192.21875 0 " clip-rule="nonzero"/></clipPath><clipPath id="1b0fccc6bc"><path d="M 55 196 L 555 196 L 555 312 L 55 312 Z M 55 196 " clip-rule="nonzero"/></clipPath><clipPath id="963a3c686d"><path d="M 192.21875 0 L 569.691406 229.46875 L 415.027344 483.894531 L 37.550781 254.429688 Z M 192.21875 0 " clip-rule="nonzero"/></clipPath><clipPath id="6a1b2d5b84"><path d="M 192.21875 0 L 569.691406 229.46875 L 415.027344 483.894531 L 37.550781 254.429688 Z M 192.21875 0 " clip-rule="nonzero"/></clipPath><clipPath id="b69ed078ae"><path d="M 39 243 L 53 243 L 53 258 L 39 258 Z M 39 243 " clip-rule="nonzero"/></clipPath><clipPath id="0805fcea91"><path d="M 192.21875 0 L 569.691406 229.46875 L 415.027344 483.894531 L 37.550781 254.429688 Z M 192.21875 0 " clip-rule="nonzero"/></clipPath><clipPath id="49b997f9fa"><path d="M 192.21875 0 L 569.691406 229.46875 L 415.027344 483.894531 L 37.550781 254.429688 Z M 192.21875 0 " clip-rule="nonzero"/></clipPath><clipPath id="a8c29bc56d"><path d="M 549.773438 153.855469 L 590.273438 153.855469 L 590.273438 210.855469 L 549.773438 210.855469 Z M 549.773438 153.855469 " clip-rule="nonzero"/></clipPath></defs><g clip-path="url(#f31475bf2d)"><path fill="#ffffff" d="M 652.34375 110.683594 C 652.378906 110.683594 652.488281 110.746094 652.585938 110.816406 C 652.796875 110.96875 652.957031 111.15625 653.148438 111.457031 C 653.316406 111.71875 653.34375 112.222656 653.21875 112.773438 C 653.109375 113.246094 653.125 114.378906 653.253906 115.3125 C 653.308594 115.722656 653.386719 116.625 653.433594 117.332031 C 653.542969 118.980469 653.773438 121.433594 653.910156 122.40625 C 654.097656 123.769531 654.46875 125.226562 654.734375 125.691406 C 654.953125 126.058594 655.023438 126.296875 654.953125 126.425781 C 654.917969 126.492188 654.867188 126.523438 654.789062 126.523438 C 654.675781 126.523438 654.515625 126.449219 654.292969 126.300781 C 653.714844 125.90625 652.957031 125.726562 651.855469 125.726562 C 651.753906 125.726562 651.648438 125.726562 651.542969 125.730469 C 651.40625 125.734375 651.296875 125.734375 651.207031 125.734375 C 650.871094 125.734375 650.757812 125.710938 650.574219 125.617188 C 650.261719 125.46875 649.761719 124.988281 649.605469 124.699219 C 649.546875 124.589844 649.453125 124.441406 649.390625 124.355469 C 649.335938 124.273438 649.148438 124 648.988281 123.753906 C 648.808594 123.476562 648.3125 122.921875 647.726562 122.339844 C 647.203125 121.8125 646.570312 121.125 646.328125 120.808594 C 645.609375 119.867188 644.191406 117.75 643.972656 117.292969 C 643.332031 115.957031 642.941406 114.902344 642.917969 114.429688 C 642.878906 113.875 643.335938 113.578125 644.628906 113.289062 C 645.496094 113.101562 646.214844 112.910156 647.007812 112.652344 C 647.238281 112.578125 647.585938 112.46875 647.765625 112.417969 C 647.949219 112.359375 648.125 112.296875 648.160156 112.265625 C 648.191406 112.242188 648.316406 112.195312 648.433594 112.171875 C 648.546875 112.144531 648.722656 112.085938 648.824219 112.042969 C 648.921875 112 649.160156 111.90625 649.339844 111.835938 C 650.019531 111.582031 650.582031 111.355469 650.640625 111.3125 C 650.816406 111.1875 652.164062 110.6875 652.339844 110.683594 C 652.339844 110.683594 652.34375 110.683594 652.34375 110.683594 Z M 665.855469 78.328125 C 665.570312 78.328125 665.253906 78.335938 664.890625 78.34375 C 663.785156 78.378906 663.457031 78.40625 662.996094 78.515625 C 661.867188 78.800781 660.925781 79.203125 660.40625 79.625 C 660.273438 79.730469 660.058594 79.898438 659.925781 79.992188 C 659.683594 80.160156 658.976562 80.894531 658.578125 81.386719 C 658.367188 81.636719 658.363281 81.644531 657.609375 81.800781 C 656.382812 82.054688 655.441406 82.433594 654.988281 82.84375 C 654.441406 83.335938 653.699219 84.527344 653.003906 86.035156 C 652.195312 87.773438 651.988281 88.179688 651.570312 88.824219 C 650.898438 89.863281 650.375 90.324219 649.5 90.640625 C 648.832031 90.882812 648.65625 90.984375 648.164062 91.390625 C 647.648438 91.820312 647.5625 91.910156 647.398438 92.261719 C 647.273438 92.523438 647.269531 92.644531 647.257812 94.484375 C 647.253906 96.257812 647.246094 96.460938 647.128906 96.777344 C 646.90625 97.414062 646.191406 98.34375 645.726562 98.585938 C 645.632812 98.636719 645.5625 98.707031 645.5625 98.734375 C 645.5625 98.765625 645.492188 98.835938 645.394531 98.882812 L 645.230469 98.976562 L 645.449219 98.980469 C 645.675781 98.976562 646.25 98.714844 646.96875 98.285156 C 647.230469 98.121094 647.402344 98.046875 647.535156 98.046875 C 647.636719 98.046875 647.714844 98.089844 647.792969 98.167969 C 647.992188 98.378906 648.054688 98.601562 648.0625 99.132812 C 648.070312 99.582031 648.082031 99.617188 648.214844 99.675781 C 648.261719 99.699219 648.296875 99.707031 648.332031 99.707031 C 648.398438 99.707031 648.460938 99.667969 648.582031 99.574219 C 648.964844 99.269531 649.15625 98.96875 649.214844 98.554688 C 649.320312 97.828125 649.589844 97.496094 650.4375 97.058594 C 651.214844 96.652344 651.820312 96.023438 652.355469 95.0625 C 652.597656 94.625 652.792969 94.390625 652.914062 94.390625 C 652.945312 94.390625 652.96875 94.40625 652.992188 94.4375 C 653.023438 94.484375 653.050781 94.769531 653.054688 95.070312 C 653.0625 95.636719 653.144531 95.878906 653.339844 95.878906 C 653.355469 95.878906 653.371094 95.875 653.386719 95.875 C 653.636719 95.832031 653.722656 95.546875 653.753906 94.632812 C 653.789062 93.632812 653.890625 93.257812 654.203125 93.003906 C 654.378906 92.859375 654.53125 92.785156 654.640625 92.785156 C 654.699219 92.785156 654.746094 92.804688 654.78125 92.847656 C 654.941406 93.035156 654.664062 94.457031 654.277344 95.484375 C 654.109375 95.929688 654.0625 96.179688 654.144531 96.179688 C 654.148438 96.179688 654.148438 96.179688 654.148438 96.179688 C 654.25 96.175781 654.585938 95.929688 654.671875 95.792969 C 654.71875 95.714844 654.871094 95.378906 655 95.042969 C 655.601562 93.546875 655.992188 92.859375 656.527344 92.382812 C 656.699219 92.230469 656.917969 91.996094 657.003906 91.859375 C 657.160156 91.632812 657.171875 91.570312 657.15625 91.03125 C 657.152344 90.597656 657.109375 90.324219 656.996094 89.992188 C 656.8125 89.417969 656.78125 88.847656 656.929688 88.769531 C 656.992188 88.738281 657.085938 88.691406 657.140625 88.660156 C 657.21875 88.621094 657.242188 88.554688 657.222656 88.433594 C 657.171875 88.066406 657.175781 87.722656 657.242188 87.695312 C 657.257812 87.691406 657.269531 87.6875 657.285156 87.6875 C 657.40625 87.6875 657.515625 87.890625 657.519531 88.148438 C 657.523438 88.566406 657.714844 89.886719 657.828125 90.375 C 658.089844 91.457031 658.558594 92.34375 659.128906 92.820312 C 659.230469 92.90625 659.566406 93.132812 659.890625 93.328125 C 660.835938 93.90625 661.074219 94.386719 661.09375 95.761719 C 661.105469 96.363281 661.082031 96.542969 660.976562 96.816406 C 660.90625 97 660.824219 97.191406 660.78125 97.238281 C 660.746094 97.289062 660.679688 97.410156 660.632812 97.507812 C 660.480469 97.835938 659.921875 98.394531 659.597656 98.566406 C 659.421875 98.652344 659.023438 98.792969 658.707031 98.875 C 658.390625 98.960938 657.792969 99.121094 657.371094 99.230469 C 656.195312 99.542969 655.359375 99.804688 654.648438 100.078125 C 654.464844 100.148438 654.21875 100.242188 654.101562 100.285156 C 652.796875 100.785156 650.417969 102.023438 648.78125 103.070312 C 647.417969 103.941406 647.210938 104.089844 646.789062 104.457031 C 646.585938 104.636719 646.285156 104.890625 646.113281 105.019531 C 645.945312 105.15625 645.675781 105.378906 645.519531 105.527344 C 645.363281 105.675781 645.039062 105.929688 644.796875 106.097656 C 644.273438 106.464844 642.609375 107.496094 641.980469 107.839844 C 641.734375 107.976562 641.355469 108.195312 641.136719 108.328125 C 640.917969 108.453125 640.570312 108.65625 640.351562 108.78125 C 640.136719 108.902344 639.929688 109.03125 639.902344 109.070312 C 639.863281 109.105469 639.527344 109.347656 639.148438 109.609375 C 637.695312 110.585938 637.558594 110.683594 636.890625 111.242188 C 636.148438 111.855469 636.066406 111.945312 635.835938 112.429688 C 635.457031 113.234375 635.402344 114.863281 635.710938 115.972656 C 635.859375 116.511719 636.296875 117.472656 636.546875 117.804688 C 637.574219 119.164062 637.867188 119.488281 639.019531 120.609375 C 642.320312 123.832031 642.800781 124.238281 644.546875 125.332031 C 644.902344 125.550781 645.289062 125.828125 645.40625 125.941406 C 646.058594 126.550781 646.765625 127.515625 647.328125 128.554688 C 648.542969 130.792969 649.265625 131.726562 650.347656 132.417969 C 650.625 132.59375 651.019531 132.910156 651.222656 133.121094 C 651.65625 133.578125 651.917969 133.746094 652.1875 133.746094 C 652.191406 133.746094 652.195312 133.746094 652.199219 133.746094 C 652.203125 133.746094 652.207031 133.746094 652.210938 133.746094 C 652.503906 133.746094 652.820312 133.890625 652.824219 134.035156 C 652.824219 134.207031 652.636719 134.609375 652.285156 135.175781 C 651.910156 135.78125 650.898438 137.621094 650.667969 138.117188 C 650.136719 139.25 649.78125 140.332031 649.511719 141.574219 C 649.402344 142.089844 649.390625 142.328125 649.410156 143.792969 C 649.421875 145.132812 649.445312 145.527344 649.539062 145.921875 C 649.601562 146.1875 649.679688 146.527344 649.710938 146.679688 C 649.808594 147.109375 650 147.570312 650.34375 148.222656 C 650.6875 148.886719 650.777344 149.246094 650.679688 149.617188 C 650.621094 149.855469 650.195312 150.675781 649.816406 151.273438 C 649.316406 152.066406 648.335938 154.3125 647.847656 155.804688 C 647.65625 156.382812 647.136719 157.820312 646.789062 158.738281 C 646.601562 159.242188 646.320312 159.988281 646.175781 160.390625 C 646.027344 160.792969 645.882812 161.179688 645.851562 161.246094 C 645.820312 161.3125 645.71875 161.601562 645.617188 161.890625 C 645.519531 162.171875 645.246094 162.820312 645.019531 163.328125 C 644.789062 163.828125 644.570312 164.34375 644.527344 164.460938 C 644.3125 165.082031 643.882812 165.976562 643.667969 166.242188 C 643.273438 166.726562 642.699219 166.964844 641.925781 166.964844 C 641.152344 166.964844 640.179688 166.726562 638.988281 166.242188 C 637.984375 165.835938 637.214844 165.628906 636.207031 165.484375 C 635.578125 165.398438 634.820312 165.351562 634.160156 165.351562 C 633.742188 165.351562 633.359375 165.371094 633.074219 165.410156 C 632.003906 165.550781 631.34375 165.671875 630.917969 165.78125 C 630.5 165.882812 630.332031 165.929688 628.828125 166.335938 C 627.804688 166.605469 627.765625 166.617188 626.796875 166.851562 C 626.332031 166.964844 625.765625 167.097656 625.546875 167.136719 C 625.148438 167.214844 624.589844 167.355469 624.007812 167.523438 C 623.839844 167.566406 623.609375 167.625 623.492188 167.652344 C 623.378906 167.671875 623.117188 167.75 622.917969 167.8125 C 622.257812 168.023438 621.746094 168.132812 620.25 168.390625 C 620.046875 168.429688 619.570312 168.492188 619.1875 168.535156 C 618.804688 168.578125 618.183594 168.640625 617.820312 168.683594 C 617.480469 168.71875 616.910156 168.746094 616.484375 168.746094 C 616.441406 168.746094 616.398438 168.746094 616.359375 168.746094 C 615.355469 168.730469 615.179688 168.652344 614.1875 167.816406 C 613.933594 167.601562 613.476562 167.222656 613.171875 166.980469 C 612.445312 166.394531 611.191406 165.183594 610.875 164.753906 C 610.402344 164.128906 610.089844 163.875 609.707031 163.875 C 609.609375 163.875 609.507812 163.890625 609.398438 163.925781 C 609.238281 163.960938 609.011719 164.074219 608.882812 164.164062 C 608.574219 164.386719 607.652344 165.355469 607.320312 165.816406 C 607.167969 166.019531 606.949219 166.320312 606.816406 166.492188 C 606.117188 167.421875 605.40625 168.660156 605.074219 169.527344 C 604.785156 170.269531 604.726562 170.519531 604.675781 171.269531 C 604.609375 172.375 604.492188 173.054688 604.316406 173.316406 C 604.242188 173.441406 603.929688 173.839844 603.628906 174.210938 C 603.332031 174.578125 603.015625 174.996094 602.925781 175.144531 C 602.835938 175.285156 602.628906 175.625 602.457031 175.894531 C 601.367188 177.632812 600.710938 179.242188 600.375 180.960938 C 600.222656 181.773438 600.230469 183.585938 600.394531 184.351562 C 600.636719 185.503906 600.949219 186.1875 601.398438 186.519531 C 601.632812 186.691406 602.109375 186.816406 602.453125 186.816406 C 602.542969 186.816406 602.625 186.804688 602.691406 186.789062 C 603.023438 186.691406 603.078125 186.648438 604.597656 185.234375 C 604.964844 184.894531 605.230469 184.46875 605.414062 183.945312 C 605.648438 183.265625 605.816406 182.859375 605.972656 182.613281 C 606.054688 182.484375 606.605469 181.894531 607.1875 181.300781 C 607.777344 180.710938 608.496094 179.949219 608.789062 179.613281 C 609.082031 179.277344 609.527344 178.839844 609.773438 178.640625 C 610.023438 178.445312 610.273438 178.246094 610.320312 178.203125 C 610.367188 178.160156 610.542969 178.011719 610.710938 177.875 C 610.875 177.746094 611.324219 177.316406 611.707031 176.941406 C 612.289062 176.359375 612.515625 176.175781 612.8125 176.175781 C 612.902344 176.175781 613.003906 176.191406 613.121094 176.222656 C 613.28125 176.257812 613.464844 176.277344 613.636719 176.277344 C 613.859375 176.277344 614.066406 176.246094 614.179688 176.183594 C 614.273438 176.132812 614.550781 175.859375 614.804688 175.582031 C 615.496094 174.789062 615.332031 174.828125 618.574219 174.785156 C 619.148438 174.777344 619.664062 174.773438 620.109375 174.773438 C 620.992188 174.773438 621.601562 174.789062 621.863281 174.816406 C 622.195312 174.851562 622.898438 174.902344 623.425781 174.921875 C 623.949219 174.945312 624.753906 175 625.222656 175.042969 C 627.113281 175.226562 628.050781 175.285156 629.457031 175.285156 C 629.792969 175.285156 630.15625 175.285156 630.570312 175.277344 C 631.925781 175.257812 632.886719 175.214844 633.214844 175.160156 C 634.144531 175.011719 635.886719 174.910156 637.222656 174.910156 C 637.695312 174.910156 638.113281 174.925781 638.429688 174.953125 C 639.070312 175.003906 639.855469 175.125 640.304688 175.234375 C 640.4375 175.269531 640.777344 175.34375 641.066406 175.398438 C 641.351562 175.457031 641.902344 175.570312 642.285156 175.652344 C 643.136719 175.835938 644.535156 176.011719 645.179688 176.011719 C 645.195312 176.011719 645.210938 176.011719 645.222656 176.011719 C 645.722656 176.003906 646.3125 175.886719 646.851562 175.675781 C 647.535156 175.410156 648.679688 174.609375 649.441406 173.863281 C 650.011719 173.300781 651.085938 172.027344 651.5625 171.355469 C 652.589844 169.90625 653.210938 169.203125 654.347656 168.21875 C 656.789062 166.121094 657.21875 165.671875 658 164.480469 C 658.351562 163.949219 659.128906 162.910156 659.472656 162.511719 C 660.054688 161.847656 660.6875 160.882812 660.808594 160.484375 C 660.847656 160.351562 660.949219 160.136719 661.027344 160.007812 C 661.117188 159.851562 661.171875 159.800781 661.246094 159.800781 C 661.261719 159.800781 661.28125 159.800781 661.304688 159.808594 C 661.375 159.832031 662.046875 160.4375 662.792969 161.15625 C 663.542969 161.867188 664.273438 162.5625 664.429688 162.691406 C 665.003906 163.179688 667.199219 165.339844 667.527344 165.742188 C 667.71875 165.96875 668.289062 166.570312 668.789062 167.070312 C 669.484375 167.757812 669.855469 168.070312 670.320312 168.359375 C 670.660156 168.574219 671.046875 168.835938 671.175781 168.9375 C 671.425781 169.128906 671.976562 169.796875 672.574219 170.605469 C 672.761719 170.863281 673.242188 171.402344 673.636719 171.804688 C 674.488281 172.667969 674.714844 173.050781 674.964844 174.0625 C 675.011719 174.242188 675.074219 174.503906 675.113281 174.636719 C 675.152344 174.769531 675.21875 175.195312 675.261719 175.578125 C 675.308594 175.960938 675.355469 176.296875 675.363281 176.3125 C 675.375 176.332031 675.429688 176.988281 675.476562 177.773438 C 675.570312 179.375 675.78125 181.230469 675.921875 181.757812 C 675.972656 181.949219 676.097656 182.421875 676.1875 182.804688 C 676.433594 183.8125 676.917969 185.300781 677.179688 185.863281 C 677.210938 185.929688 677.320312 186.214844 677.425781 186.492188 C 677.589844 186.929688 678.398438 188.511719 678.546875 188.699219 C 678.578125 188.734375 678.671875 188.882812 678.757812 189.035156 C 678.988281 189.441406 680.078125 191.164062 680.222656 191.363281 C 680.289062 191.460938 680.425781 191.65625 680.527344 191.800781 C 680.84375 192.285156 681.582031 193.382812 682.007812 194.007812 C 682.417969 194.609375 683.277344 196.015625 683.71875 196.8125 C 683.976562 197.257812 684.238281 197.734375 684.320312 197.867188 C 684.394531 198 684.570312 198.316406 684.710938 198.5625 C 684.855469 198.808594 685.261719 199.589844 685.625 200.296875 C 686.375 201.757812 686.382812 201.777344 686.113281 202.605469 C 685.910156 203.253906 685.894531 203.832031 686.058594 204.523438 C 686.230469 205.234375 686.597656 205.824219 687.433594 206.707031 C 687.773438 207.066406 687.964844 207.339844 688.191406 207.792969 C 688.605469 208.613281 688.90625 209.246094 689.039062 209.574219 C 689.214844 210.003906 689.34375 210.25 689.5 210.425781 C 689.746094 210.71875 690.269531 211.003906 690.726562 211.101562 C 690.917969 211.144531 691.03125 211.164062 691.125 211.164062 C 691.226562 211.164062 691.308594 211.140625 691.449219 211.089844 C 692.0625 210.875 692.550781 210.660156 693.269531 210.285156 C 693.875 209.972656 694.109375 209.8125 694.535156 209.402344 C 694.824219 209.132812 695.21875 208.78125 695.425781 208.617188 C 695.917969 208.226562 696.152344 207.945312 696.230469 207.632812 C 696.363281 207.097656 696.46875 206.851562 696.621094 206.726562 C 696.765625 206.617188 697.636719 206.285156 697.804688 206.285156 C 697.847656 206.285156 698.074219 206.21875 698.304688 206.136719 C 699.300781 205.789062 701.980469 203.730469 703.726562 201.957031 C 704.667969 201.007812 704.863281 200.71875 705.226562 199.757812 C 705.292969 199.585938 705.421875 199.246094 705.519531 198.996094 C 705.777344 198.308594 705.945312 197.375 705.914062 196.847656 C 705.855469 196.003906 705.488281 195.003906 705.105469 194.625 C 704.863281 194.390625 704.679688 194.304688 704.257812 194.199219 C 704.164062 194.175781 704.070312 194.164062 703.96875 194.164062 C 703.492188 194.164062 702.878906 194.429688 701.675781 195.132812 C 701.390625 195.292969 701.015625 195.488281 700.660156 195.652344 C 698.265625 196.769531 698.21875 196.78125 695.859375 196.886719 C 694.800781 196.933594 693.75 197.015625 693.347656 197.074219 C 692.953125 197.140625 692.585938 197.171875 692.257812 197.171875 C 691.605469 197.171875 691.109375 197.046875 690.851562 196.8125 C 690.617188 196.605469 690.601562 196.574219 689.941406 194.65625 C 689.871094 194.4375 689.710938 194.054688 689.589844 193.808594 C 688.996094 192.570312 688.867188 192.296875 688.609375 191.675781 C 688.457031 191.300781 688.257812 190.75 688.160156 190.453125 C 688.070312 190.148438 687.949219 189.773438 687.898438 189.609375 C 687.847656 189.453125 687.808594 189.269531 687.808594 189.214844 C 687.808594 189.160156 687.75 188.925781 687.683594 188.695312 C 687.5625 188.289062 687.480469 187.925781 687.160156 186.480469 C 687.082031 186.128906 686.945312 185.542969 686.863281 185.175781 C 686.773438 184.808594 686.65625 184.316406 686.597656 184.085938 C 686.472656 183.578125 685.761719 181.355469 685.449219 180.511719 C 685.265625 180.015625 684.890625 179.121094 684.613281 178.515625 C 684.550781 178.378906 684.417969 178.082031 684.191406 177.550781 C 684.003906 177.097656 683.765625 176.34375 683.625 175.71875 C 683.488281 175.148438 683.453125 173.722656 683.554688 173.007812 C 683.59375 172.746094 683.621094 172.101562 683.613281 171.578125 C 683.605469 170.769531 683.578125 170.550781 683.457031 170.144531 C 683.253906 169.453125 682.765625 168.515625 682.269531 167.855469 C 681.777344 167.199219 681.257812 166.480469 680.941406 166.035156 C 680.675781 165.65625 680.113281 164.636719 679.472656 163.378906 C 678.953125 162.359375 678.890625 162.234375 677.9375 160.238281 C 677.597656 159.539062 677.296875 158.921875 677.265625 158.859375 C 677.234375 158.800781 677.054688 158.417969 676.871094 158.015625 C 676.6875 157.609375 676.394531 156.992188 676.226562 156.644531 C 676.050781 156.292969 675.835938 155.859375 675.75 155.675781 C 674.871094 153.84375 674.453125 153.054688 674.058594 152.425781 C 673.984375 152.308594 673.882812 152.136719 673.839844 152.054688 C 673.804688 151.96875 673.742188 151.859375 673.703125 151.8125 C 673.671875 151.761719 673.4375 151.378906 673.179688 150.957031 C 672.757812 150.261719 672.414062 149.742188 671.949219 149.082031 C 671.621094 148.625 670.980469 147.855469 670.238281 147.03125 C 669.4375 146.136719 669.015625 145.546875 668.742188 144.929688 C 668.597656 144.597656 668.578125 144.476562 668.574219 143.855469 C 668.566406 143.203125 668.582031 143.105469 668.804688 142.414062 C 668.9375 142.011719 669.15625 141.429688 669.292969 141.128906 C 669.738281 140.164062 670.3125 138.394531 670.566406 137.222656 C 670.738281 136.4375 670.84375 135.1875 670.886719 133.476562 C 670.902344 132.65625 670.960938 131.558594 671.003906 131.042969 C 671.050781 130.523438 671.09375 129.933594 671.109375 129.734375 C 671.148438 129.3125 671.351562 128.273438 671.558594 127.476562 C 671.753906 126.707031 671.972656 125.648438 672.007812 125.21875 C 672.070312 124.554688 672.257812 123.210938 672.34375 122.808594 C 672.390625 122.589844 672.492188 122.027344 672.574219 121.566406 C 672.652344 121.089844 672.785156 120.570312 672.867188 120.386719 C 673.027344 120.042969 673.304688 119.753906 673.472656 119.75 C 673.75 119.753906 674.023438 120.15625 674.300781 120.957031 C 674.605469 121.847656 675.136719 122.941406 675.667969 123.773438 C 675.773438 123.933594 675.902344 124.144531 675.960938 124.25 C 676.347656 124.917969 677.207031 125.890625 677.65625 126.164062 C 678.15625 126.46875 679.15625 126.703125 679.886719 126.703125 C 679.992188 126.703125 680.09375 126.699219 680.1875 126.6875 C 680.929688 126.605469 681.1875 126.4375 682.230469 125.40625 C 682.628906 125.003906 683.121094 124.546875 683.316406 124.386719 C 684.152344 123.699219 684.625 123.109375 685.105469 122.144531 C 685.589844 121.175781 686.101562 120.453125 687.125 119.289062 C 687.449219 118.910156 687.828125 118.445312 687.964844 118.242188 C 688.367188 117.621094 688.894531 116.988281 689.1875 116.75 C 690.171875 115.984375 690.808594 115.226562 691.464844 114.070312 C 691.625 113.789062 691.859375 113.378906 691.992188 113.15625 C 692.460938 112.371094 692.570312 112.023438 692.5625 111.414062 C 692.550781 110.894531 692.542969 110.851562 692.316406 110.496094 C 692 109.992188 691.425781 109.496094 690.859375 109.238281 C 690.152344 108.917969 688.917969 108.515625 688.535156 108.480469 C 688.472656 108.476562 688.417969 108.472656 688.371094 108.472656 C 688.179688 108.472656 688.050781 108.519531 687.703125 108.675781 C 687.4375 108.800781 687.0625 108.925781 686.867188 108.964844 C 686.5 109.039062 686.410156 109.117188 686.128906 109.589844 C 685.992188 109.824219 685.96875 109.933594 685.980469 110.292969 C 685.988281 110.699219 686.03125 110.835938 686.363281 111.582031 C 686.429688 111.730469 686.457031 112.113281 686.476562 113.078125 L 686.503906 114.378906 L 686.289062 114.839844 C 685.988281 115.488281 685.535156 115.953125 684.546875 116.609375 C 684.441406 116.679688 684.308594 116.765625 684.242188 116.808594 C 683.753906 117.140625 683.347656 117.484375 682.796875 118.03125 C 682.082031 118.738281 681.652344 118.996094 681.015625 119.09375 C 680.898438 119.113281 680.804688 119.125 680.71875 119.125 C 680.410156 119.125 680.285156 118.964844 680.015625 118.417969 C 679.855469 118.101562 679.726562 117.824219 679.726562 117.800781 C 679.726562 117.777344 679.667969 117.640625 679.605469 117.507812 C 679.535156 117.371094 679.378906 117.027344 679.257812 116.734375 C 679.140625 116.445312 678.84375 115.78125 678.605469 115.253906 C 677.632812 113.121094 677.449219 112.671875 676.929688 111.140625 C 676.769531 110.667969 676.636719 110.246094 676.632812 110.191406 C 676.632812 110.140625 676.59375 110.007812 676.546875 109.898438 C 676.496094 109.789062 676.324219 109.304688 676.160156 108.820312 C 675.808594 107.773438 675.289062 106.746094 674.675781 105.878906 C 673.617188 104.394531 673.132812 104.027344 671.335938 103.367188 C 670.894531 103.207031 670.398438 103.007812 670.234375 102.925781 C 670.0625 102.84375 669.804688 102.714844 669.65625 102.644531 C 669.242188 102.4375 668.828125 102.027344 668.867188 101.855469 C 668.878906 101.777344 668.945312 101.453125 669.007812 101.136719 C 669.078125 100.820312 669.15625 100.308594 669.1875 100.007812 C 669.292969 98.949219 669.542969 98.191406 669.898438 97.855469 C 670.296875 97.480469 671.136719 97.238281 672.328125 97.164062 C 673.28125 97.109375 673.675781 97.003906 673.898438 96.765625 C 674.199219 96.425781 674.25 96.292969 674.296875 95.609375 C 674.320312 95.230469 674.394531 94.78125 674.46875 94.5625 C 674.574219 94.230469 674.585938 94.140625 674.519531 93.902344 C 674.457031 93.652344 674.460938 93.613281 674.597656 93.367188 C 674.742188 93.121094 674.746094 93.054688 674.726562 92.425781 C 674.695312 91.636719 674.726562 91.574219 675.269531 91.367188 C 675.457031 91.296875 675.6875 91.171875 675.78125 91.097656 C 675.933594 90.972656 675.957031 90.914062 675.953125 90.652344 C 675.949219 90.371094 675.90625 90.28125 675.445312 89.601562 C 674.785156 88.613281 674.660156 88.296875 674.648438 87.550781 C 674.644531 87.234375 674.675781 86.792969 674.714844 86.574219 C 674.753906 86.355469 674.777344 85.917969 674.773438 85.601562 C 674.765625 84.96875 674.746094 84.902344 674.230469 83.90625 C 674.070312 83.589844 673.84375 83.082031 673.722656 82.785156 C 673.40625 82 673.300781 81.78125 673.082031 81.519531 C 672.976562 81.386719 672.851562 81.167969 672.816406 81.035156 C 672.613281 80.410156 672.371094 80.105469 671.792969 79.730469 C 670.804688 79.09375 669.875 78.785156 668.117188 78.511719 C 667.304688 78.378906 666.726562 78.328125 665.855469 78.328125 Z M 665.855469 78.328125 " fill-opacity="1" fill-rule="nonzero"/></g><g clip-path="url(#f187ba470d)"><g clip-path="url(#d8997b6119)"><g clip-path="url(#5ae9312b88)"><path fill="#ffffff" d="M 557.601562 241.132812 L 557.339844 240.972656 C 557.117188 240.8125 556.910156 240.632812 556.722656 240.433594 C 556.53125 240.234375 556.367188 240.019531 556.21875 239.785156 C 556.074219 239.550781 555.949219 239.308594 555.851562 239.050781 C 555.753906 238.792969 555.683594 238.527344 555.636719 238.257812 C 555.589844 237.988281 555.570312 237.714844 555.578125 237.4375 C 555.585938 237.164062 555.621094 236.894531 555.683594 236.625 C 555.742188 236.355469 555.828125 236.097656 555.941406 235.84375 C 556.054688 235.59375 556.1875 235.355469 556.347656 235.132812 C 559.070312 231.3125 560.585938 228.890625 560.601562 228.867188 C 560.746094 228.632812 560.910156 228.414062 561.097656 228.210938 C 561.28125 228.007812 561.488281 227.828125 561.710938 227.664062 C 561.933594 227.503906 562.167969 227.363281 562.417969 227.25 C 562.667969 227.132812 562.925781 227.042969 563.191406 226.976562 C 563.460938 226.914062 563.730469 226.875 564.003906 226.863281 C 564.28125 226.851562 564.554688 226.867188 564.824219 226.910156 C 565.097656 226.953125 565.363281 227.019531 565.621094 227.113281 C 565.878906 227.207031 566.125 227.328125 566.359375 227.46875 L 566.402344 227.496094 C 566.636719 227.640625 566.855469 227.808594 567.054688 228 C 567.257812 228.1875 567.4375 228.394531 567.597656 228.617188 C 567.757812 228.84375 567.894531 229.078125 568.007812 229.332031 C 568.121094 229.582031 568.207031 229.84375 568.269531 230.109375 C 568.332031 230.378906 568.367188 230.652344 568.375 230.925781 C 568.382812 231.203125 568.367188 231.476562 568.320312 231.746094 C 568.273438 232.019531 568.203125 232.285156 568.105469 232.542969 C 568.007812 232.800781 567.886719 233.042969 567.742188 233.277344 C 567.675781 233.382812 566.089844 235.921875 563.203125 239.96875 C 562.898438 240.402344 562.519531 240.761719 562.078125 241.054688 C 561.632812 241.34375 561.152344 241.542969 560.632812 241.652344 C 560.113281 241.761719 559.59375 241.769531 559.070312 241.679688 C 558.546875 241.589844 558.058594 241.410156 557.601562 241.132812 Z M 557.601562 241.132812 " fill-opacity="1" fill-rule="nonzero"/></g></g></g><g clip-path="url(#1b0fccc6bc)"><g clip-path="url(#963a3c686d)"><g clip-path="url(#6a1b2d5b84)"><path fill="#ffffff" d="M 57.160156 239.652344 C 56.851562 239.464844 56.570312 239.242188 56.320312 238.984375 C 56.128906 238.785156 55.957031 238.570312 55.808594 238.339844 C 55.65625 238.109375 55.53125 237.863281 55.429688 237.609375 C 55.328125 237.351562 55.253906 237.085938 55.203125 236.816406 C 55.152344 236.546875 55.132812 236.269531 55.136719 235.996094 C 55.140625 235.71875 55.171875 235.445312 55.230469 235.175781 C 55.289062 234.90625 55.371094 234.644531 55.480469 234.394531 C 55.589844 234.140625 55.726562 233.898438 55.882812 233.671875 C 56.039062 233.445312 56.21875 233.238281 56.414062 233.046875 C 60.273438 229.304688 64.21875 225.796875 68.144531 222.625 C 68.359375 222.445312 68.589844 222.292969 68.832031 222.160156 C 69.078125 222.03125 69.332031 221.925781 69.597656 221.84375 C 69.863281 221.761719 70.132812 221.710938 70.410156 221.683594 C 70.683594 221.65625 70.960938 221.65625 71.238281 221.683594 C 71.511719 221.710938 71.78125 221.765625 72.046875 221.847656 C 72.3125 221.929688 72.566406 222.035156 72.8125 222.167969 C 73.054688 222.296875 73.285156 222.453125 73.496094 222.628906 C 73.710938 222.808594 73.90625 223.003906 74.078125 223.21875 C 74.253906 223.433594 74.40625 223.664062 74.535156 223.910156 C 74.664062 224.15625 74.765625 224.410156 74.84375 224.675781 C 74.921875 224.945312 74.972656 225.214844 74.996094 225.492188 C 75.023438 225.765625 75.019531 226.042969 74.988281 226.320312 C 74.957031 226.59375 74.902344 226.863281 74.816406 227.128906 C 74.734375 227.390625 74.625 227.644531 74.488281 227.890625 C 74.355469 228.132812 74.199219 228.359375 74.019531 228.570312 C 73.839844 228.78125 73.644531 228.972656 73.425781 229.144531 C 69.699219 232.164062 65.941406 235.503906 62.257812 239.070312 C 61.925781 239.394531 61.550781 239.65625 61.128906 239.855469 C 60.710938 240.054688 60.269531 240.179688 59.808594 240.234375 C 59.347656 240.285156 58.890625 240.261719 58.433594 240.160156 C 57.980469 240.0625 57.554688 239.890625 57.160156 239.652344 Z M 80.992188 220.488281 C 80.441406 220.152344 79.992188 219.714844 79.644531 219.171875 C 79.496094 218.941406 79.375 218.695312 79.273438 218.441406 C 79.171875 218.183594 79.097656 217.921875 79.050781 217.652344 C 79.003906 217.382812 78.980469 217.109375 78.984375 216.835938 C 78.992188 216.558594 79.023438 216.289062 79.082031 216.019531 C 79.140625 215.753906 79.222656 215.492188 79.332031 215.242188 C 79.441406 214.988281 79.574219 214.75 79.730469 214.523438 C 79.886719 214.296875 80.0625 214.089844 80.261719 213.898438 C 80.457031 213.707031 80.671875 213.539062 80.902344 213.386719 C 85.347656 210.511719 89.964844 207.945312 94.753906 205.683594 C 95.253906 205.460938 95.78125 205.34375 96.328125 205.328125 C 96.875 205.3125 97.40625 205.398438 97.921875 205.589844 C 98.433594 205.785156 98.890625 206.066406 99.292969 206.4375 C 99.699219 206.808594 100.015625 207.246094 100.246094 207.742188 C 100.480469 208.238281 100.609375 208.757812 100.636719 209.308594 C 100.667969 209.855469 100.589844 210.386719 100.410156 210.90625 C 100.226562 211.421875 99.957031 211.886719 99.59375 212.296875 C 99.230469 212.710938 98.804688 213.035156 98.3125 213.28125 C 93.851562 215.378906 89.554688 217.765625 85.410156 220.4375 C 84.738281 220.863281 84.003906 221.082031 83.210938 221.089844 C 82.414062 221.097656 81.675781 220.898438 80.992188 220.488281 Z M 108.703125 207.667969 C 108.355469 207.457031 108.046875 207.199219 107.773438 206.894531 C 107.5 206.59375 107.277344 206.257812 107.101562 205.890625 C 106.925781 205.519531 106.808594 205.136719 106.746094 204.734375 C 106.679688 204.332031 106.675781 203.929688 106.730469 203.523438 C 106.785156 203.121094 106.894531 202.734375 107.0625 202.359375 C 107.230469 201.988281 107.445312 201.648438 107.710938 201.339844 C 107.980469 201.03125 108.28125 200.769531 108.625 200.546875 C 108.96875 200.328125 109.335938 200.160156 109.726562 200.046875 C 114.890625 198.5625 120.140625 197.550781 125.484375 197.003906 C 125.757812 196.976562 126.03125 196.976562 126.304688 197.003906 C 126.578125 197.03125 126.847656 197.085938 127.113281 197.167969 C 127.375 197.246094 127.628906 197.351562 127.871094 197.484375 C 128.113281 197.613281 128.339844 197.765625 128.554688 197.941406 C 128.765625 198.117188 128.960938 198.308594 129.132812 198.523438 C 129.308594 198.734375 129.460938 198.964844 129.589844 199.207031 C 129.71875 199.449219 129.824219 199.703125 129.902344 199.964844 C 129.984375 200.230469 130.035156 200.5 130.0625 200.773438 C 130.089844 201.046875 130.089844 201.320312 130.0625 201.59375 C 130.035156 201.867188 129.980469 202.136719 129.902344 202.402344 C 129.820312 202.664062 129.714844 202.917969 129.585938 203.160156 C 129.457031 203.402344 129.304688 203.628906 129.128906 203.84375 C 128.953125 204.054688 128.761719 204.25 128.546875 204.425781 C 128.335938 204.597656 128.109375 204.75 127.863281 204.878906 C 127.621094 205.011719 127.367188 205.117188 127.105469 205.195312 C 126.84375 205.273438 126.574219 205.328125 126.300781 205.355469 C 121.457031 205.851562 116.695312 206.769531 112.015625 208.117188 C 111.457031 208.277344 110.890625 208.316406 110.3125 208.238281 C 109.738281 208.15625 109.203125 207.964844 108.707031 207.664062 Z M 259.511719 298.441406 C 258.414062 297.773438 257.300781 297.097656 256.234375 296.363281 C 256.003906 296.210938 255.789062 296.039062 255.59375 295.84375 C 255.398438 295.648438 255.222656 295.4375 255.066406 295.210938 C 254.914062 294.980469 254.78125 294.738281 254.675781 294.484375 C 254.566406 294.230469 254.488281 293.96875 254.433594 293.699219 C 254.375 293.425781 254.347656 293.15625 254.347656 292.878906 C 254.347656 292.601562 254.371094 292.328125 254.425781 292.058594 C 254.476562 291.789062 254.554688 291.523438 254.660156 291.269531 C 254.765625 291.011719 254.894531 290.769531 255.046875 290.539062 C 255.199219 290.308594 255.371094 290.097656 255.566406 289.902344 C 255.757812 289.707031 255.972656 289.53125 256.199219 289.375 C 256.429688 289.222656 256.671875 289.089844 256.925781 288.984375 C 257.179688 288.878906 257.441406 288.796875 257.710938 288.742188 C 257.984375 288.6875 258.257812 288.660156 258.53125 288.660156 C 258.808594 288.660156 259.082031 288.683594 259.351562 288.738281 C 259.625 288.789062 259.886719 288.871094 260.140625 288.972656 C 260.398438 289.078125 260.640625 289.207031 260.871094 289.359375 C 264.941406 292.0625 269.207031 294.410156 273.667969 296.40625 C 273.914062 296.523438 274.148438 296.660156 274.367188 296.820312 C 274.589844 296.980469 274.792969 297.164062 274.976562 297.363281 C 275.164062 297.5625 275.328125 297.78125 275.46875 298.011719 C 275.613281 298.242188 275.730469 298.488281 275.828125 298.742188 C 275.921875 299 275.992188 299.261719 276.039062 299.53125 C 276.082031 299.800781 276.097656 300.070312 276.089844 300.34375 C 276.082031 300.617188 276.046875 300.886719 275.984375 301.152344 C 275.925781 301.417969 275.839844 301.675781 275.726562 301.925781 C 275.617188 302.171875 275.480469 302.410156 275.324219 302.632812 C 275.167969 302.855469 274.988281 303.0625 274.792969 303.25 C 274.59375 303.4375 274.378906 303.605469 274.148438 303.75 C 273.917969 303.898438 273.675781 304.019531 273.421875 304.121094 C 273.167969 304.21875 272.90625 304.292969 272.640625 304.339844 C 272.371094 304.390625 272.101562 304.410156 271.828125 304.40625 C 271.554688 304.402344 271.285156 304.371094 271.019531 304.3125 C 270.75 304.257812 270.492188 304.175781 270.242188 304.066406 C 266.546875 302.417969 262.972656 300.539062 259.515625 298.4375 Z M 244.257812 287.078125 C 244.039062 286.945312 243.832031 286.792969 243.636719 286.625 C 239.695312 283.09375 235.988281 279.332031 232.519531 275.339844 C 232.328125 275.136719 232.160156 274.910156 232.015625 274.671875 C 231.871094 274.433594 231.75 274.179688 231.652344 273.917969 C 231.558594 273.652344 231.492188 273.382812 231.449219 273.105469 C 231.410156 272.828125 231.394531 272.546875 231.410156 272.265625 C 231.425781 271.988281 231.46875 271.710938 231.539062 271.441406 C 231.609375 271.167969 231.707031 270.90625 231.832031 270.65625 C 231.953125 270.402344 232.101562 270.164062 232.269531 269.941406 C 232.441406 269.71875 232.632812 269.515625 232.84375 269.332031 C 233.054688 269.148438 233.285156 268.984375 233.527344 268.847656 C 233.769531 268.707031 234.027344 268.59375 234.292969 268.507812 C 234.558594 268.421875 234.832031 268.359375 235.109375 268.328125 C 235.390625 268.292969 235.667969 268.289062 235.949219 268.3125 C 236.226562 268.335938 236.503906 268.386719 236.773438 268.464844 C 237.042969 268.542969 237.300781 268.648438 237.546875 268.777344 C 237.796875 268.90625 238.03125 269.0625 238.246094 269.238281 C 238.464844 269.414062 238.664062 269.613281 238.839844 269.828125 C 242.085938 273.554688 245.546875 277.066406 249.222656 280.363281 C 249.613281 280.710938 249.925781 281.121094 250.160156 281.585938 C 250.394531 282.050781 250.539062 282.542969 250.59375 283.0625 C 250.644531 283.582031 250.601562 284.089844 250.464844 284.59375 C 250.328125 285.097656 250.101562 285.558594 249.792969 285.976562 C 249.480469 286.398438 249.105469 286.746094 248.667969 287.027344 C 248.226562 287.304688 247.75 287.496094 247.238281 287.597656 C 246.726562 287.699219 246.214844 287.707031 245.699219 287.617188 C 245.1875 287.527344 244.707031 287.347656 244.257812 287.078125 Z M 284.289062 308.714844 C 283.863281 308.457031 283.492188 308.132812 283.183594 307.742188 C 282.875 307.351562 282.640625 306.917969 282.484375 306.445312 C 282.328125 305.972656 282.257812 305.488281 282.277344 304.988281 C 282.292969 304.492188 282.394531 304.011719 282.585938 303.550781 C 282.773438 303.089844 283.035156 302.671875 283.371094 302.304688 C 283.707031 301.9375 284.09375 301.636719 284.539062 301.410156 C 284.980469 301.179688 285.449219 301.03125 285.941406 300.96875 C 286.4375 300.90625 286.925781 300.933594 287.414062 301.042969 C 292.109375 302.140625 296.867188 302.714844 301.691406 302.769531 C 301.964844 302.773438 302.238281 302.804688 302.507812 302.859375 C 302.777344 302.914062 303.039062 303 303.292969 303.105469 C 303.542969 303.214844 303.785156 303.34375 304.011719 303.5 C 304.238281 303.65625 304.449219 303.832031 304.644531 304.027344 C 304.835938 304.226562 305.007812 304.4375 305.15625 304.667969 C 305.308594 304.898438 305.4375 305.140625 305.539062 305.398438 C 305.640625 305.652344 305.71875 305.914062 305.769531 306.1875 C 305.820312 306.457031 305.847656 306.730469 305.84375 307.003906 C 305.839844 307.28125 305.8125 307.550781 305.753906 307.820312 C 305.699219 308.089844 305.617188 308.351562 305.511719 308.605469 C 305.402344 308.859375 305.273438 309.101562 305.117188 309.328125 C 304.960938 309.554688 304.785156 309.765625 304.589844 309.960938 C 304.394531 310.152344 304.179688 310.324219 303.949219 310.476562 C 303.71875 310.625 303.476562 310.753906 303.222656 310.859375 C 302.96875 310.960938 302.703125 311.039062 302.433594 311.089844 C 302.164062 311.140625 301.890625 311.167969 301.617188 311.164062 C 296.175781 311.105469 290.808594 310.460938 285.511719 309.230469 C 285.074219 309.125 284.667969 308.953125 284.289062 308.714844 Z M 224.082031 264.078125 C 223.585938 263.773438 223.171875 263.378906 222.835938 262.902344 C 222.292969 262.125 221.757812 261.335938 221.222656 260.539062 C 218.9375 257.132812 216.523438 253.800781 214.046875 250.628906 C 213.851562 250.417969 213.683594 250.183594 213.542969 249.9375 C 213.398438 249.6875 213.28125 249.425781 213.1875 249.15625 C 213.097656 248.882812 213.035156 248.601562 213.003906 248.316406 C 212.96875 248.03125 212.964844 247.746094 212.992188 247.460938 C 213.015625 247.171875 213.070312 246.894531 213.152344 246.617188 C 213.238281 246.34375 213.347656 246.078125 213.484375 245.828125 C 213.621094 245.574219 213.78125 245.339844 213.96875 245.117188 C 214.152344 244.898438 214.359375 244.703125 214.585938 244.523438 C 214.8125 244.347656 215.054688 244.195312 215.3125 244.066406 C 215.570312 243.941406 215.839844 243.839844 216.117188 243.769531 C 216.394531 243.695312 216.675781 243.652344 216.964844 243.640625 C 217.25 243.625 217.535156 243.640625 217.820312 243.683594 C 218.105469 243.730469 218.382812 243.804688 218.648438 243.90625 C 218.917969 244.003906 219.175781 244.132812 219.417969 244.289062 C 219.660156 244.441406 219.882812 244.617188 220.089844 244.816406 C 220.296875 245.019531 220.480469 245.238281 220.640625 245.476562 C 223.246094 248.804688 225.78125 252.304688 228.179688 255.878906 C 228.6875 256.632812 229.199219 257.378906 229.710938 258.117188 C 229.984375 258.511719 230.183594 258.941406 230.308594 259.402344 C 230.4375 259.867188 230.480469 260.339844 230.445312 260.816406 C 230.410156 261.296875 230.296875 261.753906 230.105469 262.195312 C 229.914062 262.632812 229.652344 263.027344 229.324219 263.378906 C 228.996094 263.730469 228.621094 264.015625 228.195312 264.238281 C 227.769531 264.457031 227.316406 264.601562 226.84375 264.667969 C 226.367188 264.738281 225.894531 264.722656 225.425781 264.628906 C 224.953125 264.53125 224.511719 264.363281 224.101562 264.117188 Z M 139.015625 204.695312 C 138.609375 204.449219 138.25 204.144531 137.945312 203.777344 C 137.640625 203.410156 137.40625 203.003906 137.238281 202.558594 C 137.074219 202.109375 136.984375 201.648438 136.976562 201.171875 C 136.96875 200.695312 137.039062 200.230469 137.1875 199.777344 C 137.335938 199.324219 137.554688 198.910156 137.847656 198.53125 C 138.136719 198.15625 138.484375 197.835938 138.882812 197.578125 C 139.28125 197.316406 139.714844 197.128906 140.175781 197.015625 C 140.640625 196.902344 141.109375 196.871094 141.582031 196.917969 C 146.941406 197.398438 152.207031 198.363281 157.386719 199.816406 C 157.65625 199.886719 157.910156 199.984375 158.15625 200.109375 C 158.40625 200.234375 158.636719 200.378906 158.855469 200.550781 C 159.074219 200.71875 159.273438 200.910156 159.453125 201.117188 C 159.632812 201.328125 159.792969 201.550781 159.925781 201.792969 C 160.0625 202.035156 160.175781 202.285156 160.261719 202.546875 C 160.347656 202.808594 160.40625 203.078125 160.441406 203.351562 C 160.472656 203.625 160.480469 203.902344 160.460938 204.175781 C 160.4375 204.453125 160.390625 204.722656 160.316406 204.988281 C 160.242188 205.253906 160.144531 205.511719 160.019531 205.757812 C 159.894531 206.003906 159.746094 206.234375 159.574219 206.453125 C 159.40625 206.667969 159.214844 206.867188 159.003906 207.046875 C 158.796875 207.226562 158.570312 207.382812 158.328125 207.519531 C 158.089844 207.65625 157.835938 207.765625 157.574219 207.851562 C 157.3125 207.9375 157.042969 207.996094 156.769531 208.027344 C 156.496094 208.058594 156.21875 208.066406 155.945312 208.042969 C 155.667969 208.019531 155.398438 207.972656 155.132812 207.898438 C 150.449219 206.585938 145.683594 205.710938 140.839844 205.269531 C 140.1875 205.222656 139.578125 205.03125 139.015625 204.695312 Z M 314.667969 308.851562 C 314.3125 308.636719 313.996094 308.375 313.722656 308.066406 C 313.445312 307.757812 313.21875 307.414062 313.042969 307.039062 C 312.867188 306.664062 312.75 306.269531 312.691406 305.859375 C 312.632812 305.449219 312.636719 305.039062 312.699219 304.628906 C 312.761719 304.21875 312.882812 303.824219 313.0625 303.449219 C 313.242188 303.078125 313.472656 302.738281 313.753906 302.429688 C 314.035156 302.125 314.351562 301.867188 314.710938 301.65625 C 315.066406 301.445312 315.445312 301.289062 315.847656 301.191406 C 320.460938 300.074219 324.824219 298.335938 328.9375 295.976562 C 329.175781 295.835938 329.425781 295.726562 329.6875 295.636719 C 329.949219 295.546875 330.214844 295.488281 330.488281 295.449219 C 330.761719 295.414062 331.035156 295.40625 331.3125 295.425781 C 331.585938 295.441406 331.855469 295.488281 332.121094 295.558594 C 332.386719 295.632812 332.644531 295.726562 332.890625 295.851562 C 333.136719 295.972656 333.371094 296.117188 333.589844 296.285156 C 333.808594 296.453125 334.007812 296.640625 334.1875 296.847656 C 334.371094 297.054688 334.53125 297.277344 334.667969 297.515625 C 334.804688 297.753906 334.917969 298.003906 335.007812 298.265625 C 335.09375 298.523438 335.15625 298.792969 335.195312 299.066406 C 335.230469 299.335938 335.238281 299.613281 335.222656 299.886719 C 335.203125 300.160156 335.160156 300.433594 335.085938 300.699219 C 335.015625 300.964844 334.917969 301.21875 334.796875 301.46875 C 334.675781 301.714844 334.53125 301.949219 334.363281 302.167969 C 334.195312 302.382812 334.007812 302.585938 333.800781 302.765625 C 333.59375 302.949219 333.371094 303.109375 333.132812 303.246094 C 328.328125 306 323.230469 308.03125 317.847656 309.339844 C 316.714844 309.621094 315.648438 309.453125 314.652344 308.84375 Z M 205.160156 240.03125 C 204.835938 239.835938 204.542969 239.601562 204.28125 239.324219 C 200.863281 235.722656 197.261719 232.308594 193.484375 229.082031 C 193.28125 228.902344 193.09375 228.707031 192.925781 228.488281 C 192.761719 228.273438 192.617188 228.042969 192.492188 227.800781 C 192.371094 227.554688 192.273438 227.300781 192.203125 227.039062 C 192.128906 226.773438 192.085938 226.507812 192.066406 226.234375 C 192.042969 225.960938 192.050781 225.691406 192.085938 225.417969 C 192.117188 225.148438 192.175781 224.882812 192.261719 224.625 C 192.347656 224.363281 192.453125 224.117188 192.589844 223.878906 C 192.722656 223.640625 192.875 223.417969 193.054688 223.207031 C 193.230469 223 193.425781 222.8125 193.640625 222.640625 C 193.851562 222.472656 194.082031 222.324219 194.324219 222.199219 C 194.566406 222.074219 194.820312 221.972656 195.082031 221.898438 C 195.34375 221.820312 195.609375 221.773438 195.882812 221.746094 C 196.152344 221.722656 196.425781 221.726562 196.695312 221.753906 C 196.96875 221.785156 197.234375 221.839844 197.496094 221.921875 C 197.753906 222 198.003906 222.105469 198.246094 222.238281 C 198.484375 222.367188 198.710938 222.519531 198.921875 222.691406 C 202.921875 226.117188 206.730469 229.742188 210.347656 233.566406 C 210.699219 233.9375 210.972656 234.355469 211.171875 234.824219 C 211.371094 235.292969 211.480469 235.785156 211.5 236.292969 C 211.519531 236.800781 211.453125 237.296875 211.289062 237.78125 C 211.128906 238.265625 210.890625 238.707031 210.566406 239.101562 C 210.246094 239.496094 209.867188 239.824219 209.425781 240.082031 C 208.988281 240.339844 208.515625 240.511719 208.015625 240.59375 C 207.511719 240.679688 207.011719 240.675781 206.511719 240.578125 C 206.007812 240.480469 205.542969 240.300781 205.109375 240.03125 Z M 168.425781 212.75 C 168.183594 212.621094 167.953125 212.46875 167.742188 212.292969 C 167.527344 212.117188 167.335938 211.921875 167.160156 211.707031 C 166.984375 211.496094 166.835938 211.265625 166.703125 211.023438 C 166.574219 210.777344 166.46875 210.523438 166.390625 210.261719 C 166.3125 209.996094 166.257812 209.726562 166.230469 209.453125 C 166.207031 209.175781 166.207031 208.902344 166.234375 208.628906 C 166.261719 208.355469 166.316406 208.085938 166.394531 207.820312 C 166.476562 207.558594 166.582031 207.304688 166.710938 207.0625 C 166.84375 206.816406 166.996094 206.589844 167.171875 206.375 C 167.347656 206.164062 167.542969 205.96875 167.753906 205.796875 C 167.96875 205.621094 168.199219 205.46875 168.441406 205.339844 C 168.683594 205.210938 168.9375 205.105469 169.203125 205.027344 C 169.46875 204.945312 169.734375 204.894531 170.011719 204.867188 C 170.285156 204.839844 170.558594 204.839844 170.835938 204.867188 C 171.109375 204.894531 171.378906 204.949219 171.640625 205.03125 C 171.90625 205.109375 172.160156 205.214844 172.402344 205.347656 C 175.976562 207.050781 179.449219 208.941406 182.816406 211.023438 C 183.9375 211.703125 185.128906 212.429688 186.25 213.195312 C 186.480469 213.347656 186.695312 213.519531 186.890625 213.714844 C 187.089844 213.90625 187.265625 214.117188 187.421875 214.34375 C 187.574219 214.574219 187.707031 214.8125 187.816406 215.066406 C 187.921875 215.320312 188.003906 215.582031 188.0625 215.855469 C 188.117188 216.125 188.148438 216.398438 188.148438 216.671875 C 188.152344 216.949219 188.125 217.222656 188.074219 217.492188 C 188.023438 217.761719 187.945312 218.027344 187.84375 218.28125 C 187.738281 218.539062 187.613281 218.78125 187.460938 219.011719 C 187.308594 219.242188 187.136719 219.457031 186.941406 219.652344 C 186.75 219.851562 186.539062 220.027344 186.3125 220.179688 C 186.082031 220.335938 185.839844 220.46875 185.585938 220.574219 C 185.332031 220.683594 185.070312 220.765625 184.800781 220.820312 C 184.53125 220.875 184.257812 220.90625 183.984375 220.90625 C 183.707031 220.910156 183.433594 220.882812 183.164062 220.832031 C 182.890625 220.78125 182.628906 220.703125 182.371094 220.597656 C 182.117188 220.496094 181.875 220.367188 181.644531 220.214844 C 180.601562 219.53125 179.535156 218.855469 178.488281 218.21875 L 178.457031 218.199219 C 175.339844 216.289062 172.128906 214.550781 168.824219 212.992188 C 168.6875 212.917969 168.554688 212.839844 168.425781 212.75 Z M 340.832031 293.664062 C 340.507812 293.464844 340.214844 293.226562 339.957031 292.949219 C 339.769531 292.75 339.601562 292.53125 339.457031 292.296875 C 339.3125 292.0625 339.195312 291.816406 339.097656 291.558594 C 339 291.300781 338.929688 291.035156 338.886719 290.761719 C 338.84375 290.492188 338.824219 290.21875 338.835938 289.941406 C 338.84375 289.667969 338.882812 289.394531 338.945312 289.128906 C 339.007812 288.859375 339.097656 288.601562 339.210938 288.351562 C 339.324219 288.101562 339.464844 287.863281 339.625 287.640625 C 339.785156 287.417969 339.96875 287.210938 340.167969 287.023438 C 344.207031 283.25 348.6875 280.101562 353.609375 277.582031 C 353.855469 277.445312 354.113281 277.335938 354.378906 277.253906 C 354.648438 277.171875 354.921875 277.117188 355.203125 277.089844 C 355.484375 277.0625 355.761719 277.0625 356.042969 277.089844 C 356.320312 277.117188 356.59375 277.175781 356.863281 277.257812 C 357.132812 277.339844 357.390625 277.449219 357.636719 277.585938 C 357.882812 277.722656 358.113281 277.878906 358.328125 278.0625 C 358.542969 278.242188 358.734375 278.445312 358.910156 278.664062 C 359.085938 278.882812 359.234375 279.121094 359.363281 279.371094 C 359.488281 279.621094 359.589844 279.882812 359.664062 280.152344 C 359.738281 280.425781 359.785156 280.699219 359.804688 280.980469 C 359.824219 281.261719 359.8125 281.542969 359.777344 281.820312 C 359.738281 282.097656 359.675781 282.371094 359.582031 282.636719 C 359.492188 282.902344 359.375 283.15625 359.230469 283.398438 C 359.085938 283.640625 358.921875 283.863281 358.734375 284.074219 C 358.546875 284.28125 358.339844 284.46875 358.113281 284.636719 C 357.886719 284.804688 357.644531 284.949219 357.390625 285.066406 C 353.167969 287.230469 349.324219 289.929688 345.859375 293.171875 C 345.523438 293.484375 345.148438 293.734375 344.730469 293.921875 C 344.316406 294.109375 343.878906 294.226562 343.425781 294.273438 C 342.96875 294.320312 342.519531 294.292969 342.074219 294.191406 C 341.628906 294.089844 341.210938 293.921875 340.820312 293.683594 Z M 367.722656 279.832031 C 367.367188 279.613281 367.046875 279.347656 366.769531 279.035156 C 366.488281 278.71875 366.261719 278.371094 366.089844 277.992188 C 365.914062 277.609375 365.800781 277.210938 365.746094 276.792969 C 365.691406 276.378906 365.699219 275.964844 365.765625 275.550781 C 365.835938 275.136719 365.964844 274.742188 366.152344 274.367188 C 366.339844 273.992188 366.582031 273.652344 366.871094 273.347656 C 367.160156 273.046875 367.488281 272.792969 367.851562 272.585938 C 368.21875 272.382812 368.605469 272.234375 369.015625 272.144531 C 374.296875 271.050781 379.632812 270.484375 385.027344 270.441406 C 385.304688 270.4375 385.578125 270.457031 385.847656 270.507812 C 386.117188 270.558594 386.382812 270.632812 386.640625 270.734375 C 386.894531 270.835938 387.140625 270.960938 387.371094 271.109375 C 387.601562 271.261719 387.816406 271.429688 388.015625 271.621094 C 388.214844 271.8125 388.390625 272.023438 388.546875 272.25 C 388.703125 272.476562 388.835938 272.71875 388.945312 272.96875 C 389.054688 273.222656 389.140625 273.484375 389.199219 273.753906 C 389.257812 274.023438 389.289062 274.296875 389.292969 274.570312 C 389.296875 274.847656 389.273438 275.121094 389.222656 275.390625 C 389.175781 275.664062 389.101562 275.925781 389 276.183594 C 388.898438 276.4375 388.769531 276.683594 388.621094 276.914062 C 388.472656 277.148438 388.300781 277.359375 388.109375 277.558594 C 387.917969 277.757812 387.707031 277.933594 387.480469 278.089844 C 387.253906 278.25 387.015625 278.382812 386.761719 278.492188 C 386.507812 278.601562 386.25 278.683594 385.980469 278.742188 C 385.710938 278.800781 385.4375 278.832031 385.160156 278.835938 C 380.3125 278.882812 375.515625 279.398438 370.769531 280.386719 C 369.679688 280.617188 368.660156 280.4375 367.710938 279.851562 Z M 398.203125 279.105469 C 397.792969 278.855469 397.433594 278.546875 397.128906 278.175781 C 396.824219 277.804688 396.589844 277.390625 396.425781 276.941406 C 396.261719 276.488281 396.179688 276.023438 396.175781 275.542969 C 396.171875 275.0625 396.25 274.59375 396.40625 274.140625 C 396.5625 273.683594 396.792969 273.269531 397.09375 272.894531 C 397.390625 272.519531 397.746094 272.203125 398.152344 271.949219 C 398.5625 271.695312 399 271.519531 399.46875 271.414062 C 399.9375 271.3125 400.410156 271.289062 400.890625 271.347656 C 405.761719 271.949219 410.960938 272.84375 416.371094 274.023438 C 416.640625 274.078125 416.90625 274.164062 417.160156 274.269531 C 417.414062 274.378906 417.65625 274.511719 417.882812 274.667969 C 418.113281 274.824219 418.324219 275.003906 418.515625 275.199219 C 418.710938 275.398438 418.882812 275.613281 419.03125 275.847656 C 419.183594 276.078125 419.308594 276.324219 419.414062 276.582031 C 419.515625 276.839844 419.589844 277.105469 419.640625 277.375 C 419.691406 277.648438 419.710938 277.921875 419.707031 278.199219 C 419.703125 278.476562 419.671875 278.75 419.613281 279.023438 C 419.554688 279.292969 419.46875 279.554688 419.359375 279.808594 C 419.246094 280.0625 419.113281 280.300781 418.953125 280.53125 C 418.796875 280.757812 418.617188 280.964844 418.417969 281.15625 C 418.21875 281.351562 418 281.519531 417.765625 281.667969 C 417.535156 281.816406 417.289062 281.941406 417.027344 282.042969 C 416.769531 282.140625 416.503906 282.214844 416.234375 282.265625 C 415.960938 282.3125 415.683594 282.332031 415.40625 282.324219 C 415.132812 282.316406 414.859375 282.285156 414.585938 282.222656 C 409.425781 281.09375 404.476562 280.242188 399.871094 279.679688 C 399.273438 279.605469 398.71875 279.414062 398.203125 279.105469 Z M 428.148438 285.484375 C 427.714844 285.21875 427.339844 284.890625 427.027344 284.488281 C 426.710938 284.089844 426.480469 283.648438 426.324219 283.164062 C 426.171875 282.679688 426.109375 282.183594 426.132812 281.679688 C 426.160156 281.171875 426.277344 280.683594 426.480469 280.21875 C 426.683594 279.753906 426.960938 279.339844 427.3125 278.972656 C 427.667969 278.609375 428.074219 278.320312 428.53125 278.101562 C 428.992188 277.886719 429.472656 277.757812 429.980469 277.714844 C 430.488281 277.671875 430.984375 277.722656 431.472656 277.859375 C 436.15625 279.203125 441.136719 280.765625 446.289062 282.5 C 446.550781 282.589844 446.800781 282.703125 447.039062 282.839844 C 447.277344 282.976562 447.5 283.136719 447.707031 283.316406 C 447.914062 283.5 448.101562 283.699219 448.269531 283.917969 C 448.4375 284.136719 448.585938 284.367188 448.707031 284.617188 C 448.828125 284.863281 448.925781 285.117188 448.996094 285.386719 C 449.070312 285.652344 449.113281 285.921875 449.132812 286.195312 C 449.152344 286.472656 449.140625 286.746094 449.105469 287.019531 C 449.070312 287.292969 449.007812 287.558594 448.921875 287.820312 C 448.832031 288.082031 448.71875 288.332031 448.582031 288.570312 C 448.445312 288.808594 448.285156 289.03125 448.105469 289.238281 C 447.921875 289.445312 447.722656 289.632812 447.503906 289.800781 C 447.285156 289.96875 447.054688 290.117188 446.808594 290.238281 C 446.558594 290.359375 446.304688 290.457031 446.039062 290.527344 C 445.773438 290.601562 445.5 290.644531 445.226562 290.664062 C 444.953125 290.683594 444.675781 290.675781 444.40625 290.636719 C 444.132812 290.601562 443.863281 290.542969 443.601562 290.453125 C 438.578125 288.757812 433.71875 287.230469 429.160156 285.929688 C 428.804688 285.820312 428.46875 285.667969 428.152344 285.472656 Z M 457.21875 295.21875 C 456.761719 294.953125 456.371094 294.609375 456.046875 294.195312 C 455.722656 293.777344 455.484375 293.316406 455.332031 292.8125 C 455.179688 292.308594 455.125 291.792969 455.167969 291.265625 C 455.210938 290.738281 455.351562 290.238281 455.582031 289.765625 C 455.8125 289.292969 456.125 288.875 456.511719 288.519531 C 456.898438 288.160156 457.339844 287.886719 457.832031 287.695312 C 458.324219 287.503906 458.832031 287.410156 459.363281 287.410156 C 459.890625 287.414062 460.398438 287.511719 460.890625 287.703125 L 462.207031 288.195312 C 466.199219 289.707031 470.320312 290.625 474.574219 290.953125 C 474.847656 290.976562 475.117188 291.023438 475.382812 291.097656 C 475.648438 291.171875 475.90625 291.269531 476.152344 291.394531 C 476.398438 291.519531 476.628906 291.667969 476.84375 291.835938 C 477.0625 292.007812 477.261719 292.195312 477.441406 292.40625 C 477.621094 292.617188 477.777344 292.839844 477.914062 293.082031 C 478.046875 293.320312 478.160156 293.570312 478.246094 293.832031 C 478.332031 294.09375 478.390625 294.363281 478.421875 294.636719 C 478.457031 294.910156 478.460938 295.183594 478.441406 295.460938 C 478.421875 295.734375 478.371094 296.003906 478.296875 296.269531 C 478.222656 296.535156 478.125 296.792969 478 297.039062 C 477.875 297.285156 477.726562 297.515625 477.558594 297.730469 C 477.386719 297.949219 477.199219 298.148438 476.988281 298.328125 C 476.78125 298.507812 476.554688 298.664062 476.316406 298.796875 C 476.074219 298.933594 475.824219 299.042969 475.5625 299.128906 C 475.300781 299.214844 475.03125 299.277344 474.757812 299.308594 C 474.484375 299.34375 474.210938 299.347656 473.9375 299.328125 C 468.882812 298.933594 463.988281 297.84375 459.246094 296.046875 L 457.945312 295.5625 C 457.695312 295.464844 457.453125 295.347656 457.222656 295.210938 Z M 487.277344 297.585938 C 486.917969 297.367188 486.601562 297.101562 486.320312 296.789062 C 486.042969 296.476562 485.816406 296.128906 485.640625 295.75 C 485.464844 295.367188 485.351562 294.96875 485.296875 294.554688 C 485.238281 294.140625 485.246094 293.722656 485.316406 293.3125 C 485.382812 292.898438 485.511719 292.503906 485.699219 292.128906 C 485.882812 291.753906 486.121094 291.414062 486.410156 291.109375 C 486.699219 290.804688 487.027344 290.550781 487.390625 290.34375 C 487.753906 290.136719 488.140625 289.988281 488.550781 289.898438 C 493.246094 288.832031 497.765625 287.253906 502.105469 285.167969 C 502.601562 284.964844 503.121094 284.855469 503.65625 284.847656 C 504.195312 284.84375 504.714844 284.933594 505.214844 285.128906 C 505.71875 285.320312 506.167969 285.597656 506.5625 285.964844 C 506.957031 286.328125 507.269531 286.753906 507.5 287.242188 C 507.730469 287.726562 507.863281 288.238281 507.898438 288.773438 C 507.933594 289.308594 507.867188 289.835938 507.703125 290.34375 C 507.535156 290.855469 507.28125 291.320312 506.933594 291.730469 C 506.589844 292.144531 506.183594 292.480469 505.710938 292.734375 C 500.796875 295.089844 495.683594 296.871094 490.371094 298.074219 C 489.273438 298.324219 488.246094 298.15625 487.285156 297.574219 Z M 514.964844 284.847656 C 514.664062 284.664062 514.394531 284.449219 514.148438 284.199219 C 513.902344 283.949219 513.695312 283.671875 513.519531 283.371094 C 513.34375 283.066406 513.207031 282.746094 513.113281 282.410156 C 513.015625 282.074219 512.964844 281.730469 512.953125 281.382812 C 512.945312 281.03125 512.980469 280.6875 513.054688 280.34375 C 513.132812 280.003906 513.25 279.675781 513.410156 279.363281 C 513.566406 279.050781 513.761719 278.765625 513.992188 278.5 C 514.222656 278.238281 514.480469 278.007812 514.769531 277.808594 C 518.839844 274.992188 522.734375 271.949219 526.453125 268.679688 C 526.660156 268.492188 526.882812 268.324219 527.121094 268.175781 C 527.359375 268.03125 527.613281 267.910156 527.875 267.816406 C 528.140625 267.71875 528.410156 267.652344 528.6875 267.609375 C 528.964844 267.570312 529.242188 267.558594 529.523438 267.570312 C 529.804688 267.585938 530.078125 267.628906 530.351562 267.699219 C 530.621094 267.769531 530.882812 267.863281 531.136719 267.988281 C 531.386719 268.109375 531.625 268.257812 531.847656 268.425781 C 532.070312 268.597656 532.273438 268.785156 532.460938 268.996094 C 532.644531 269.207031 532.804688 269.4375 532.945312 269.679688 C 533.085938 269.921875 533.199219 270.175781 533.285156 270.445312 C 533.375 270.710938 533.433594 270.980469 533.46875 271.261719 C 533.5 271.539062 533.507812 271.816406 533.484375 272.097656 C 533.460938 272.375 533.414062 272.652344 533.335938 272.921875 C 533.257812 273.191406 533.15625 273.449219 533.023438 273.699219 C 532.894531 273.945312 532.742188 274.179688 532.566406 274.398438 C 532.390625 274.617188 532.195312 274.8125 531.980469 274.992188 C 528.011719 278.484375 523.855469 281.730469 519.507812 284.738281 C 519.175781 284.960938 518.816406 285.136719 518.433594 285.257812 C 518.050781 285.378906 517.65625 285.445312 517.253906 285.453125 C 516.851562 285.464844 516.457031 285.414062 516.066406 285.308594 C 515.679688 285.207031 515.3125 285.046875 514.96875 284.835938 Z M 538.105469 264.785156 C 537.839844 264.621094 537.59375 264.429688 537.367188 264.210938 C 537.144531 263.992188 536.945312 263.75 536.777344 263.488281 C 536.605469 263.226562 536.464844 262.949219 536.355469 262.652344 C 536.25 262.359375 536.175781 262.058594 536.132812 261.746094 C 536.089844 261.4375 536.085938 261.125 536.113281 260.8125 C 536.140625 260.5 536.203125 260.195312 536.300781 259.898438 C 536.398438 259.597656 536.527344 259.316406 536.6875 259.046875 C 536.847656 258.777344 537.035156 258.527344 537.25 258.300781 C 540.613281 254.78125 543.960938 250.996094 547.214844 247.042969 C 547.390625 246.828125 547.585938 246.636719 547.800781 246.460938 C 548.011719 246.285156 548.242188 246.132812 548.484375 246.003906 C 548.730469 245.871094 548.984375 245.769531 549.246094 245.6875 C 549.511719 245.609375 549.78125 245.554688 550.054688 245.527344 C 550.332031 245.5 550.605469 245.5 550.878906 245.527344 C 551.15625 245.554688 551.425781 245.609375 551.6875 245.6875 C 551.953125 245.769531 552.207031 245.875 552.449219 246.003906 C 552.691406 246.132812 552.921875 246.289062 553.136719 246.460938 C 553.347656 246.636719 553.542969 246.832031 553.71875 247.042969 C 553.894531 247.257812 554.046875 247.488281 554.175781 247.730469 C 554.308594 247.972656 554.414062 248.226562 554.492188 248.492188 C 554.574219 248.753906 554.628906 249.023438 554.65625 249.300781 C 554.683594 249.574219 554.683594 249.847656 554.65625 250.125 C 554.628906 250.398438 554.574219 250.667969 554.496094 250.933594 C 554.417969 251.195312 554.3125 251.449219 554.183594 251.695312 C 554.050781 251.9375 553.898438 252.167969 553.726562 252.378906 C 550.34375 256.492188 546.863281 260.4375 543.335938 264.089844 C 543.003906 264.433594 542.625 264.71875 542.199219 264.933594 C 541.769531 265.152344 541.320312 265.292969 540.84375 265.355469 C 540.371094 265.417969 539.898438 265.398438 539.429688 265.300781 C 538.960938 265.199219 538.519531 265.027344 538.109375 264.777344 Z M 538.105469 264.785156 " fill-opacity="1" fill-rule="nonzero"/></g></g></g><g clip-path="url(#b69ed078ae)"><g clip-path="url(#0805fcea91)"><g clip-path="url(#49b997f9fa)"><path fill="#ffffff" d="M 41.335938 256.828125 C 41.15625 256.722656 40.988281 256.601562 40.828125 256.46875 C 40.617188 256.292969 40.421875 256.097656 40.25 255.882812 C 40.078125 255.667969 39.925781 255.441406 39.796875 255.195312 C 39.671875 254.953125 39.566406 254.699219 39.488281 254.433594 C 39.410156 254.171875 39.359375 253.902344 39.332031 253.625 C 39.308594 253.351562 39.308594 253.078125 39.339844 252.804688 C 39.367188 252.53125 39.421875 252.261719 39.503906 252 C 39.585938 251.734375 39.691406 251.484375 39.820312 251.242188 C 39.953125 251 40.105469 250.769531 40.28125 250.558594 C 41.992188 248.5 43.738281 246.46875 45.476562 244.511719 C 45.851562 244.117188 46.289062 243.808594 46.78125 243.582031 C 47.277344 243.355469 47.796875 243.234375 48.339844 243.210938 C 48.882812 243.1875 49.414062 243.265625 49.925781 243.449219 C 50.4375 243.628906 50.898438 243.902344 51.304688 244.261719 C 51.710938 244.625 52.035156 245.050781 52.277344 245.535156 C 52.519531 246.023438 52.660156 246.539062 52.703125 247.082031 C 52.746094 247.625 52.683594 248.15625 52.519531 248.671875 C 52.351562 249.191406 52.097656 249.660156 51.75 250.078125 C 50.078125 251.96875 48.394531 253.933594 46.738281 255.921875 C 46.417969 256.3125 46.039062 256.628906 45.601562 256.878906 C 45.167969 257.132812 44.699219 257.296875 44.203125 257.382812 C 43.707031 257.464844 43.214844 257.457031 42.71875 257.363281 C 42.226562 257.269531 41.765625 257.089844 41.335938 256.828125 Z M 41.335938 256.828125 " fill-opacity="1" fill-rule="nonzero"/></g></g></g><g clip-path="url(#a8c29bc56d)"><path fill="#ffffff" d="M 569.972656 182.515625 C 565.105469 182.515625 561.378906 178.789062 561.378906 173.914062 C 561.378906 169.042969 565.105469 165.320312 569.972656 165.320312 C 574.847656 165.320312 578.574219 169.042969 578.574219 173.914062 C 578.574219 178.789062 574.847656 182.515625 569.972656 182.515625 Z M 569.972656 153.855469 C 558.800781 153.855469 549.914062 162.742188 549.914062 173.914062 C 549.914062 185.09375 569.972656 211.171875 569.972656 211.171875 C 569.972656 211.171875 590.039062 185.09375 590.039062 173.914062 C 590.039062 162.742188 581.152344 153.855469 569.972656 153.855469 " fill-opacity="1" fill-rule="nonzero"/></g></svg>